<?xml version="1.0" standalone="no"?>
<!DOCTYPE svg PUBLIC "-//W3C//DTD SVG 20010904//EN"
 "http://www.w3.org/TR/2001/REC-SVG-20010904/DTD/svg10.dtd">
<svg version="1.0" xmlns="http://www.w3.org/2000/svg"
 width="512.000000pt" height="512.000000pt" viewBox="0 0 512.000000 512.000000"
 preserveAspectRatio="xMidYMid meet">
<metadata>
Created by potrace 1.14, written by Peter Selinger 2001-2017
</metadata>
<g transform="translate(0.000000,512.000000) scale(0.100000,-0.100000)"
fill="#000000" stroke="none">
<path d="M2310 4575 c-924 -115 -1658 -828 -1784 -1734 -21 -146 -21 -426 0
-572 118 -847 777 -1540 1625 -1708 166 -33 310 -44 484 -38 530 19 997 216
1374 582 327 317 534 722 596 1165 20 150 20 420 0 570 -109 782 -676 1434
-1446 1665 -255 77 -578 103 -849 70z m569 -1500 c484 -297 881 -542 881 -545
0 -5 -1752 -1081 -1771 -1088 -5 -2 -9 464 -9 1088 0 627 4 1090 9 1088 5 -1
405 -246 890 -543z"/>
</g>
</svg>
